<?xml version="1.0" encoding="utf-8"?>
<!-- Generator: Adobe Illustrator 16.0.2, SVG Export Plug-In . SVG Version: 6.00 Build 0)  -->
<!DOCTYPE svg PUBLIC "-//W3C//DTD SVG 1.1//EN" "http://www.w3.org/Graphics/SVG/1.1/DTD/svg11.dtd">
<svg version="1.1" id="Layer_1" xmlns="http://www.w3.org/2000/svg" xmlns:xlink="http://www.w3.org/1999/xlink" x="0px" y="0px"
	 width="54px" height="45px" viewBox="0 0 54 45" enable-background="new 0 0 54 45" xml:space="preserve">
<path d="M45.151,37.9c-1.325,0-2.791,0.029-4.229,0.056H40.5c-0.565-1.208-1.494-2.219-2.68-2.922
	c0.847-0.337,1.72-0.59,2.594-0.787c0.452-0.084,0.79-0.449,0.874-0.927c0.142-0.928,0.283-1.884,0.452-3.007
	c1.549,0.562,3.438,1.123,4.847,1.293c-0.196,0.729-0.251,1.517-0.196,2.275c0.028,0.449,0.366,0.843,0.79,0.956
	c2.705,0.759,3.58,1.686,3.919,2.415C50.423,37.564,48.702,37.9,45.151,37.9L45.151,37.9z M27.785,42.285
	c-7.808,0-13.079-1.182-14.263-1.742c-0.254-3.316,5.243-5.369,8.626-6.07c0.535-0.112,0.901-0.591,0.874-1.125
	c-0.057-1.152-0.084-2.698-0.113-4.805c2.65,1.039,6.792,2.332,8.937,2.36c0.027,1.265,0.085,2.444,0.196,3.485
	c0.028,0.449,0.368,0.842,0.79,0.954c4.593,1.294,5.609,2.951,5.892,4.16C38.187,40.206,34.805,42.285,27.785,42.285L27.785,42.285
	L27.785,42.285z M8.758,37.872c-3.523,0-5.271-0.365-5.948-0.59c0.311-0.73,1.184-1.657,3.919-2.416
	C7.18,34.753,7.49,34.36,7.546,33.91c0.057-0.758,0-1.546-0.197-2.277c1.41-0.168,3.326-0.729,4.849-1.292
	c0.169,1.124,0.31,2.08,0.451,3.007c0.056,0.45,0.423,0.815,0.874,0.928c0.563,0.113,1.128,0.281,1.691,0.449
	c-1.466,0.872-2.622,1.939-3.298,3.205C10.816,37.9,9.744,37.872,8.758,37.872L8.758,37.872z M2.726,16.598
	c0.028-0.927,0.056-3.372,3.834-4.776c1.015-0.366,3.298-0.647,4.99-0.029s3.043,1.574,3.665,2.613
	c0.253,0.45,0.479,0.928,0.648,1.406c0.085,1.096,0.254,2.164,0.479,3.231c-0.028,1.714-0.311,3.401-0.789,5.032
	c-0.367,1.235-1.016,2.837-2.171,3.398c-1.438,0.703-5.441,2.08-6.85,1.968c-0.846-0.028-1.043-0.364-1.438-1.067
	c-0.112-0.169-0.196-0.337-0.31-0.506C3.374,25.957,2.641,21.826,2.726,16.598L2.726,16.598z M20.767,32.506
	c-0.986,0.252-1.973,0.532-2.931,0.897c-1.015-0.477-2.059-0.87-3.13-1.151c-0.113-0.844-0.282-1.771-0.45-2.782l0.027-0.028
	c1.522-0.731,2.622-2.36,3.326-4.777c0.084-0.28,0.142-0.506,0.198-0.786c0.76,1.601,1.719,2.754,2.846,3.485
	C20.683,29.554,20.711,31.241,20.767,32.506z M19.526,7.016c0.93-1.49,2.875-2.896,5.328-3.794c1.1-0.366,2.284-0.563,3.44-0.534
	c1.296-0.029,2.565,0.168,3.806,0.59c5.524,2.052,5.581,5.677,5.581,7.054c0.112,7.363-0.959,13.209-2.905,15.99
	c-0.14,0.226-0.28,0.422-0.422,0.675c-0.564,0.927-0.987,1.603-2.368,1.687h-0.14c-2.228,0-7.612-1.855-9.585-2.812
	c-1.747-0.843-2.734-3.202-3.241-5.001c-0.733-2.473-1.1-5.03-1.128-7.587C17.864,11.09,18.427,8.927,19.526,7.016L19.526,7.016
	L19.526,7.016z M34.156,33.432c-0.085-0.926-0.141-1.939-0.141-3.033c1.184-0.563,1.777-1.547,2.227-2.278
	c0.114-0.196,0.227-0.364,0.339-0.533c0.169-0.253,0.338-0.563,0.507-0.843c0.648,1.293,1.496,2.249,2.537,2.754l0.029,0.027
	c-0.17,1.041-0.31,1.967-0.451,2.783c-1.353,0.337-2.678,0.871-3.891,1.546C34.947,33.686,34.58,33.545,34.156,33.432L34.156,33.432
	z M42.417,11.822c1.691-0.618,3.974-0.338,4.989,0.027c3.775,1.405,3.805,3.851,3.805,4.778c0.085,5.227-0.677,9.359-2.029,11.325
	c-0.113,0.168-0.226,0.31-0.31,0.507c-0.424,0.674-0.62,1.011-1.466,1.066c-1.381,0.028-5.386-1.264-6.822-1.994
	c-1.156-0.563-1.833-2.164-2.17-3.4l-0.085-0.31c0.874-2.782,1.409-6.351,1.522-10.567C40.64,12.637,41.514,12.159,42.417,11.822
	L42.417,11.822L42.417,11.822z M48.618,33.012c0.057-0.591,0.197-1.152,0.424-1.688c0.761-0.393,1.381-1.01,1.773-1.741
	c0.086-0.141,0.17-0.253,0.256-0.394c1.634-2.36,2.508-6.829,2.423-12.59c-0.056-3.231-1.804-5.536-5.242-6.8
	c-1.27-0.478-4.172-0.899-6.541-0.028c-0.619,0.225-1.211,0.506-1.776,0.815c0-0.084,0-0.169,0-0.281
	c-0.054-4.299-2.423-7.363-7.019-9.077c-2.311-0.872-6.286-0.956-8.794-0.057c-1.72,0.618-4.821,2.08-6.456,4.721
	c-1.043,1.799-1.664,3.823-1.861,5.874c-1.043-0.871-2.227-1.545-3.496-2.023C9.942,8.87,7.038,9.292,5.77,9.77
	c-3.438,1.292-5.215,3.569-5.243,6.801c-0.084,5.762,0.761,10.257,2.396,12.618c0.084,0.113,0.168,0.253,0.253,0.394
	c0.395,0.759,1.016,1.349,1.777,1.741c0.226,0.536,0.338,1.098,0.395,1.688c-2.002,0.674-4.342,1.826-4.821,4.355
	c-0.084,0.448,0.028,0.899,0.338,1.236c0.846,1.012,3.495,1.518,7.921,1.518c0.818,0,1.691,0,2.565,0.028
	c-0.028,0.394,0,0.759,0.084,1.151c0.563,3.092,16.236,3.232,16.378,3.232c6.652,0,11.136-1.799,12.6-3.569
	c0.197-0.225,0.338-0.478,0.452-0.758h0.141c1.41-0.028,2.875-0.057,4.201-0.057c4.425,0,7.075-0.505,7.921-1.518
	c0.281-0.338,0.422-0.787,0.337-1.236C52.931,34.866,50.618,33.686,48.618,33.012L48.618,33.012L48.618,33.012z"/>
</svg>
